<svg width="83" height="83" viewBox="0 0 83 83" fill="none" xmlns="http://www.w3.org/2000/svg">
<g clip-path="url(#clip0_10_106)">
<path d="M19.975 29.6565H35.4979V30.8803H21.392V40.1554H34.6606V41.3792H21.392V51.5561H35.6912V52.7799H19.975V29.6565ZM36.915 29.6565H38.5896L45.9325 39.8334L53.3397 29.6565L63.5165 16.7744L46.7698 40.9283L55.4008 52.7799H53.6617L45.868 41.9589L38.01 52.7799H36.3353L45.0307 40.9283L36.915 29.6565ZM56.0449 30.8803V29.6565H73.7578V30.8803H65.5777V52.7799H64.1606V30.8803H56.0449ZM0.52301 29.6565H2.2621L26.8669 66.2417L16.6901 52.7799L2.00445 31.3956L1.94004 52.7799H0.52301V29.6565ZM73.629 51.1696C73.951 51.1696 74.1443 50.9764 74.1443 50.6543C74.1443 50.3323 73.951 50.139 73.629 50.139C73.3069 50.139 73.1137 50.3323 73.1137 50.6543C73.1137 50.9764 73.3714 51.1696 73.629 51.1696ZM75.046 49.817C75.046 50.6543 75.6901 51.234 76.5919 51.234C77.558 51.234 78.1377 50.6543 78.1377 49.6238V46.0812H77.3648V49.6238C77.3648 50.2035 77.1072 50.4611 76.5919 50.4611C76.141 50.4611 75.819 50.2035 75.819 49.7526H75.046V49.817ZM79.1039 49.7526C79.1683 50.6543 79.8768 51.234 81.0362 51.234C82.1956 51.234 82.9685 50.6543 82.9685 49.6882C82.9685 48.9153 82.5177 48.5288 81.5515 48.2711L80.9718 48.1423C80.3277 48.0135 80.0701 47.7559 80.0701 47.4338C80.0701 46.9829 80.4565 46.6609 81.1006 46.6609C81.6803 46.6609 82.0668 46.9185 82.1312 47.4338H82.9041C82.8397 46.5965 82.1312 46.0168 81.1006 46.0168C80.0056 46.0168 79.2971 46.5965 79.2971 47.4982C79.2971 48.2067 79.6836 48.6576 80.5853 48.8508L81.2294 48.9797C81.8736 49.1085 82.1956 49.3661 82.1956 49.7526C82.1956 50.2035 81.7447 50.5255 81.1006 50.5255C80.4565 50.5255 79.9412 50.2035 79.8768 49.7526H79.1039Z" fill="#F8F8F2"/>
</g>
<defs>
<clipPath id="clip0_10_106">
<rect width="82.4455" height="82.4455" fill="white" transform="translate(0.52301 0.092041)"/>
</clipPath>
</defs>
</svg>
