<svg width="154" height="103" viewBox="0 0 154 103" fill="none" xmlns="http://www.w3.org/2000/svg">
<path d="M103.168 0.434027C93.1844 0.4292 83.4262 3.44596 75.1417 9.09839C74.5714 9.49389 70.6295 12.3503 70.4562 12.4894C63.908 17.4844 59.5113 18.3487 53.4901 16.818C53.1219 16.7227 51.3964 16.1222 50.855 15.9098C45.2313 13.7617 39.1815 13.0146 33.2141 13.7311C27.2466 14.4475 21.5359 16.6067 16.5619 20.0272C11.5879 23.4476 7.49586 28.0294 4.62981 33.3874C1.76375 38.7453 0.207382 44.723 0.0915145 50.8179C-0.0243535 56.9128 1.30366 62.9468 3.96395 68.4129C6.62423 73.879 10.5391 78.6174 15.3794 82.2299C20.2197 85.8423 25.8441 88.2233 31.7799 89.1727C37.7156 90.122 43.7893 89.6121 49.4905 87.6856C58.4717 84.9611 63.3449 85.7081 68.9834 89.7437C70.1097 90.5493 72.8242 92.3144 73.3874 92.7319C79.8049 97.5093 87.2471 100.676 95.104 101.972C102.961 103.268 111.009 102.656 118.587 100.187C126.166 97.7186 133.061 93.4628 138.705 87.7689C144.349 82.075 148.583 75.1051 151.06 67.4306C153.536 59.7561 154.184 51.5955 152.951 43.6178C151.718 35.6401 148.638 28.0724 143.965 21.5352C139.292 14.998 133.159 9.67738 126.067 6.00949C118.976 2.3416 111.128 0.430903 103.168 0.434027Z" fill="white" fill-opacity="0.5"/>
<path d="M84.9964 59.4366C83.5625 60.8684 81.6927 61.765 79.692 61.9805C77.6913 62.196 75.6776 61.7175 73.9793 60.6231L70.6366 66.0063C73.5327 67.8629 76.9618 68.6735 80.3686 68.3066C83.7753 67.9397 86.9603 66.4169 89.4076 63.9849L84.9964 59.4366ZM78.9753 37.5084C76.2145 37.4639 73.4937 38.1822 71.1045 39.5863C68.7153 40.9905 66.7477 43.0276 65.4124 45.4794C64.0771 47.9312 63.4245 50.7053 63.5245 53.5046C63.6245 56.3039 64.4733 59.0229 65.98 61.3702L93.5444 49.4173C92.7688 46.0706 90.9146 43.082 88.2757 40.9249C85.6367 38.7678 82.3638 37.5655 78.9753 37.5084ZM69.8425 53.8997C69.634 51.9653 70.044 50.0142 71.012 48.3342C71.9799 46.6543 73.4545 45.3345 75.2182 44.5696C76.9819 43.8046 78.9413 43.6351 80.8072 44.086C82.6732 44.5368 84.3468 45.5842 85.5812 47.0736L69.8425 53.8997ZM102.201 30.5579V60.3595L107.298 62.5054L104.894 68.3647L99.8399 66.2407C98.8223 65.799 97.9577 65.0595 97.3564 64.1167C96.6848 63.0193 96.3459 61.7459 96.3817 60.4547V30.5579H102.201ZM57.8146 30.5579V60.3595L62.8683 62.5054L60.4642 68.3647L55.4105 66.2407C54.4269 65.7955 53.5918 65.0704 53.0063 64.1533C52.3323 63.0567 51.9908 61.7832 52.0245 60.4913V30.5579H57.8146Z" fill="#282A36"/>
<path d="M127.282 44.7519C128.341 45.2702 129.289 45.995 130.072 46.8851C130.855 47.7751 131.457 48.813 131.845 49.9393C132.232 51.0656 132.397 52.2583 132.33 53.4493C132.263 54.6403 131.966 55.8063 131.455 56.8806L137.093 59.6271C138.619 56.398 138.992 52.731 138.146 49.2541C137.301 45.7772 135.29 42.7066 132.458 40.568C129.627 38.4295 126.151 37.356 122.625 37.5314C119.099 37.7067 115.743 39.12 113.131 41.5293L117.347 46.2241C118.668 44.9986 120.321 44.2033 122.092 43.9408C123.863 43.6784 125.671 43.9609 127.282 44.7519Z" fill="black" fill-opacity="0.6"/>
<path d="M119.521 61.1359C117.38 60.0902 115.737 58.2258 114.95 55.9518C114.164 53.6778 114.299 51.1802 115.326 49.0072L109.688 46.2534C108.176 49.4783 107.814 53.1348 108.662 56.6004C109.509 60.066 111.515 63.1264 114.337 65.2604C117.159 67.3944 120.623 68.4701 124.139 68.3043C127.655 68.1385 131.006 66.7415 133.621 64.3511L129.404 59.6637C128.087 60.8769 126.444 61.6647 124.683 61.9269C122.923 62.1891 121.126 61.9137 119.521 61.1359ZM46.2633 61.568V52.9402C46.2633 49.8983 45.3741 46.9246 43.7082 44.3953C42.0422 41.866 39.6744 39.8946 36.904 38.7305C34.1337 37.5664 31.0853 37.2618 28.1443 37.8552C25.2033 38.4487 22.5019 39.9135 20.3815 42.0646C18.2612 44.2156 16.8172 46.9561 16.2322 49.9396C15.6472 52.9232 15.9475 56.0157 17.095 58.8261C18.2425 61.6365 20.1858 64.0386 22.679 65.7287C25.1722 67.4187 28.1035 68.3208 31.1021 68.3208C33.4526 68.3211 35.771 67.7669 37.8741 66.7022L35.4339 60.9161C34.0676 61.6825 32.5278 62.0738 30.9667 62.0511C29.4057 62.0285 27.8775 61.5928 26.5334 60.7871C25.1893 59.9814 24.0758 58.8336 23.3032 57.4574C22.5305 56.0811 22.1255 54.524 22.1281 52.9402C22.12 51.4523 22.4746 49.9855 23.1605 48.6703C23.7643 47.5226 24.6029 46.5191 25.6202 45.7271C26.6375 44.935 27.8099 44.3728 29.059 44.0781C29.7214 43.919 30.3997 43.8379 31.0804 43.8364C33.4631 43.8345 35.749 44.7923 37.4358 46.4994C39.1226 48.2065 40.0722 50.5231 40.0761 52.9402V61.4947C40.0402 62.7859 40.3792 64.0593 41.0507 65.1568C41.6562 66.0957 42.5196 66.8341 43.5343 67.2808L46.3788 68.4233L48.7901 62.5641L46.2633 61.568Z" fill="#282A36"/>
</svg>
