<svg width="100" height="103" viewBox="0 0 100 103" fill="none" xmlns="http://www.w3.org/2000/svg">
<g filter="url(#filter0_b_17_118)">
<path fill-rule="evenodd" clip-rule="evenodd" d="M18.304 0.434152L81.8455 0.472532C91.8194 0.472532 100.038 8.87129 99.9999 19.103V84.0414C99.9999 94.2736 91.7819 102.634 81.771 102.634L18.1919 102.596C8.18045 102.558 0 94.198 0 83.9658L0.0745387 19.0262C0.0745387 8.79511 8.25556 0.395772 18.304 0.434152Z" fill="white" fill-opacity="0.5"/>
<path fill-rule="evenodd" clip-rule="evenodd" d="M85.9172 47.048H78.6705L75.6822 52.8509H80.7621L85.9172 47.048ZM90.7361 56.4784H83.676V72.0541C83.676 76.8266 80.5374 78.2007 78.2227 78.2007C76.0179 78.2007 73.5894 77.3604 73.6275 73.1985V56.4778H66.5674L66.5299 74.2296C66.5299 81.1007 70.3785 84.1548 75.6827 84.1548C79.3801 84.1932 82.2575 82.551 83.8632 79.6504H83.9377V83.4302H90.7366V56.4784H90.7361ZM61.0379 63.6164C61.0379 56.936 54.1656 55.7527 50.355 55.7527C44.8636 55.7527 39.1481 56.936 38.2889 65.1818H45.1248C45.349 63.617 45.984 61.4404 49.4953 61.4404C51.3257 61.4404 54.1656 61.5939 54.1656 64.5718C54.1656 66.0983 52.7829 66.5571 51.662 66.7095L45.312 67.6637C40.7919 68.3133 37.4303 71.0231 37.4303 76.2922C37.4303 81.8654 41.6141 84.1559 45.6107 84.1559C50.4671 84.1559 52.7454 81.9038 54.3146 80.2627C54.4637 81.752 54.5758 82.1334 54.9872 83.4314L61.076 83.393C61.076 80.4151 61.0385 78.2391 61.0385 78.2013V63.6164H61.0379ZM30.9301 47.048H23.87V56.4394H20.209V61.5172H23.8324V77.8948C23.8324 81.3682 24.9158 83.7361 31.0422 83.7361H31.9764C33.0968 83.7361 34.2171 83.6587 35.3011 83.6215V78.2379C34.8152 78.2763 34.2928 78.3525 33.8439 78.3525C30.9676 78.3525 30.8925 77.7413 30.8925 76.1375L30.9301 61.5166H35.3381V56.4388H30.9301V47.048ZM16.9595 47.0096H9.33895L9.30139 83.3924H16.922L16.9595 47.0096Z" fill="#282A36"/>
<path fill-rule="evenodd" clip-rule="evenodd" d="M54.1656 73.7713V70.298C53.4555 70.8702 52.2594 71.3278 49.3462 71.7483C46.6941 72.2059 44.5273 72.8933 44.5273 75.8334C44.5273 78.2763 46.4699 79.0782 47.8144 79.0782C50.953 79.0788 54.1656 77.0551 54.1656 73.7713Z" fill="white" fill-opacity="0.5"/>
</g>
<defs>
<filter id="filter0_b_17_118" x="-4" y="-3.56598" width="108" height="110.2" filterUnits="userSpaceOnUse" color-interpolation-filters="sRGB">
<feFlood flood-opacity="0" result="BackgroundImageFix"/>
<feGaussianBlur in="BackgroundImageFix" stdDeviation="2"/>
<feComposite in2="SourceAlpha" operator="in" result="effect1_backgroundBlur_17_118"/>
<feBlend mode="normal" in="SourceGraphic" in2="effect1_backgroundBlur_17_118" result="shape"/>
</filter>
</defs>
</svg>
