<svg width="102" height="103" viewBox="0 0 102 103" fill="none" xmlns="http://www.w3.org/2000/svg">
<path d="M61.8364 102.634C22.2686 102.634 0 74.1894 0 51.0267C0 8.15516 44.5379 0.434021 63.0286 0.434021C91.2623 0.434021 102 13.0318 102 26.4413C102 51.2296 75.1585 47.9785 75.1585 70.3295C75.1585 80.488 79.1356 85.1623 79.1356 93.2893C79.1356 98.1627 79.732 102.634 61.8364 102.634Z" fill="white" fill-opacity="0.5"/>
<path d="M64.8197 51.279C64.8197 54.3369 62.3481 56.8159 59.3022 56.8159C56.2539 56.8159 53.7847 54.3369 53.7847 51.279C53.7847 48.2211 56.2539 45.7422 59.3022 45.7422C62.3481 45.7428 64.8197 48.2218 64.8197 51.279ZM65.0177 75.4077C65.0177 84.0486 62.546 91.0523 59.5002 91.0523C56.4518 91.0523 53.9814 84.0486 53.9814 75.4077C53.9814 66.7662 56.4518 59.7619 59.5002 59.7619C62.548 59.7619 65.0177 66.7662 65.0177 75.4077ZM50.9006 75.7629C50.9006 84.5437 44.3131 91.6618 36.1877 91.6618C28.0623 91.6618 21.4741 84.5437 21.4741 75.7629C21.4741 66.9821 28.0623 59.864 36.1877 59.864C44.3137 59.864 50.9006 66.9821 50.9006 75.7629Z" fill="#282A36"/>
<path d="M42.1527 75.9653C42.1527 80.2585 39.5047 83.7372 36.238 83.7372C32.9713 83.7372 30.3226 80.2572 30.3226 75.9653C30.3226 71.6735 32.9713 68.1941 36.238 68.1941C39.504 68.1941 42.1527 71.6741 42.1527 75.9653Z" fill="white" fill-opacity="0.5"/>
</svg>
