<svg width="48" height="45" viewBox="0 0 48 45" fill="none" xmlns="http://www.w3.org/2000/svg">
<g clip-path="url(#clip0_18_175)">
<path d="M24.0719 0C10.7791 0 0 10.315 0 23.0397C0 33.2194 6.89731 41.8556 16.4619 44.9021C17.6648 45.1153 18.1066 44.4023 18.1066 43.7937C18.1066 43.2444 18.0842 41.4293 18.074 39.5042C11.377 40.8979 9.96385 36.7858 9.96385 36.7858C8.86886 34.1227 7.29113 33.4147 7.29113 33.4147C5.10719 31.9847 7.45576 32.0139 7.45576 32.0139C9.87304 32.1766 11.1459 34.3883 11.1459 34.3883C13.2928 37.9106 16.7772 36.8922 18.1508 36.3037C18.3668 34.8144 18.9907 33.7981 19.6791 33.2228C14.3325 32.6401 8.71179 30.6645 8.71179 21.8364C8.71179 19.3211 9.65216 17.2657 11.1921 15.6523C10.9422 15.0719 10.1183 12.7286 11.4253 9.55503C11.4253 9.55503 13.4467 8.93579 18.0468 11.9167C19.9668 11.4061 22.0261 11.1502 24.0719 11.1415C26.1176 11.1502 28.1785 11.4061 30.1022 11.9167C34.6969 8.93579 36.7154 9.55503 36.7154 9.55503C38.0256 12.7286 37.2014 15.0719 36.9514 15.6523C38.4948 17.2657 39.4287 19.3209 39.4287 21.8364C39.4287 30.6855 33.7975 32.6341 28.4373 33.2044C29.3006 33.9194 30.07 35.3216 30.07 37.471C30.07 40.5536 30.042 43.0348 30.042 43.7937C30.042 44.4068 30.4753 45.1253 31.6956 44.899C41.2549 41.8491 48.1435 33.2159 48.1435 23.0397C48.1435 10.315 37.366 0 24.0719 0Z" fill="white" fill-opacity="0.6"/>
<path d="M9.01571 32.8206C8.96284 32.935 8.77443 32.9693 8.6032 32.8909C8.42856 32.8157 8.33039 32.6596 8.38703 32.5447C8.43895 32.4269 8.62736 32.394 8.80161 32.4731C8.97662 32.5481 9.07631 32.7057 9.01571 32.8206ZM10.1998 33.8318C10.085 33.9337 9.86055 33.8864 9.70819 33.7254C9.55074 33.5647 9.52129 33.3501 9.63777 33.2465C9.75615 33.1448 9.97382 33.1923 10.1317 33.3531C10.2891 33.5156 10.3197 33.729 10.1996 33.832M11.0122 35.1256C10.8645 35.2237 10.6233 35.1317 10.4743 34.9268C10.3269 34.7221 10.3269 34.4763 10.4775 34.3779C10.627 34.2794 10.8645 34.3679 11.0156 34.5712C11.1628 34.7796 11.1628 35.0253 11.012 35.1258M12.3858 36.6241C12.2539 36.7632 11.9729 36.726 11.7672 36.5359C11.5568 36.3502 11.4981 36.0865 11.6305 35.9472C11.7639 35.8077 12.0466 35.8469 12.2539 36.0354C12.4629 36.2208 12.5267 36.4864 12.386 36.6241M14.1612 37.13C14.1033 37.3104 13.8325 37.3924 13.5599 37.3158C13.2877 37.2368 13.1095 37.0254 13.1644 36.8431C13.221 36.6615 13.4929 36.576 13.7676 36.6581C14.0394 36.7367 14.218 36.9465 14.1614 37.13M16.182 37.3445C16.1888 37.5346 15.9576 37.6922 15.6714 37.6956C15.3835 37.7016 15.1507 37.5478 15.1477 37.361C15.1477 37.1691 15.3736 37.013 15.6614 37.0084C15.9476 37.003 16.182 37.1557 16.182 37.3445ZM18.167 37.2717C18.2014 37.4571 18.0024 37.6476 17.7182 37.6982C17.4388 37.7469 17.1802 37.6326 17.1445 37.4488C17.1098 37.2587 17.3125 37.0684 17.5914 37.0191C17.8761 36.9718 18.1308 37.0832 18.167 37.2717Z" fill="white" fill-opacity="0.6"/>
</g>
<defs>
<clipPath id="clip0_18_175">
<rect width="47.7966" height="45" fill="white"/>
</clipPath>
</defs>
</svg>
