<svg width="44" height="45" viewBox="0 0 44 45" fill="none" xmlns="http://www.w3.org/2000/svg">
<g clip-path="url(#clip0_18_183)">
<path d="M0 3.30067C0 1.52853 1.44347 0.0900879 3.22286 0.0900879H40.3845C42.1646 0.0900879 43.6073 1.52853 43.6073 3.30067V41.7C43.6073 43.4727 42.1646 44.9101 40.3845 44.9101H3.22286C1.44364 44.9101 0 43.4729 0 41.7006V3.30015V3.30067Z" fill="white" fill-opacity="0.6"/>
<path d="M13.2519 37.5985V17.4204H6.72643V37.5985H13.2525H13.2519ZM9.99051 14.6658C12.2656 14.6658 13.682 13.1164 13.682 11.18C13.6394 9.19956 12.2656 7.69336 10.0338 7.69336C7.80043 7.69336 6.3418 9.19956 6.3418 11.1799C6.3418 13.1162 7.75767 14.6657 9.94775 14.6657H9.98999L9.99051 14.6658ZM16.8638 37.5985H23.3887V26.3313C23.3887 25.729 23.4313 25.1252 23.6037 24.695C24.0752 23.4896 25.1488 22.2418 26.9519 22.2418C29.3125 22.2418 30.2574 24.0921 30.2574 26.8049V37.5985H36.7821V26.0289C36.7821 19.8314 33.5633 16.9473 29.2702 16.9473C25.7505 16.9473 24.2046 18.9693 23.3458 20.3464H23.3892V17.4211H16.8641C16.9493 19.314 16.8636 37.5992 16.8636 37.5992L16.8638 37.5985Z" fill="#1C1D26"/>
</g>
<defs>
<clipPath id="clip0_18_183">
<rect width="43.6073" height="45" fill="white"/>
</clipPath>
</defs>
</svg>
